<?xml version="1.0" encoding="utf-8"?>
<!-- Generator: Adobe Illustrator 18.0.0, SVG Export Plug-In . SVG Version: 6.00 Build 0)  -->
<!DOCTYPE svg PUBLIC "-//W3C//DTD SVG 1.1//EN" "http://www.w3.org/Graphics/SVG/1.1/DTD/svg11.dtd">
<svg version="1.1" id="Layer_1" xmlns="http://www.w3.org/2000/svg" xmlns:xlink="http://www.w3.org/1999/xlink" x="0px" y="0px"
	 viewBox="0 0 396.7 80" enable-background="new 0 0 396.7 80" xml:space="preserve">
<g>
	<defs>
		<rect id="SVGID_1_" width="396.7" height="80"/>
	</defs>
	<clipPath id="SVGID_2_">
		<use xlink:href="#SVGID_1_"  overflow="visible"/>
	</clipPath>
	<path clip-path="url(#SVGID_2_)" d="M343.7,25.5h6.8l14.1,27.6L344,78h-7l-0.1,0.9h15.3l0.1-0.9h-6.9l19.7-23.9L377.3,78h-6.5
		l-0.1,0.9h20.5l0.1-0.9h-6.5l-14.5-28.5l18.8-24h7.5l0.1-0.9h-15.3l-0.1,0.9h6.6l-18.2,23l-11.6-23h6.1l0.1-0.9h-20.5L343.7,25.5z
		 M308.4,25.5l-6,39.6c-2.2,4.2-9.9,14-20.4,14c-8.1,0-9.7-6-8.3-15.3l5.1-33.8c0.5-3.3-0.9-5.4-3.5-5.4h-9l-0.1,0.9h7L267.4,64
		c-1.6,10.7,3.7,16,14.5,16c9.6,0,17-7.8,20.2-12.8c-1,7.1,1.4,12.7,9,12.7c6.3,0,8.4-4.8,8.4-4.8l-0.6-0.2c0,0-2.2,4.2-6.9,4.2
		c-4.1,0-4.9-2.9-3.7-11.3L314,30c0.5-3.3-0.9-5.4-3.5-5.4h-9l-0.1,0.9H308.4z M226.2,24.5c9.5,0,13.6,6.3,13.6,13.8
		c0,4.7-1.5,8.7-2.7,10.6h-32.4C207.6,34.1,216,24.5,226.2,24.5 M234.5,73.8c0,0-5.7,5.3-15.8,5.3c-13.8,0-16.5-13.2-14.4-27.8
		l0.2-1.4h33.1c0,0,3.4-3.6,3.4-11.7c0-8.5-5.3-14.6-14.7-14.6c-19.2,0-28.8,16.4-28.8,33.5c0,14.6,8.2,22.9,21,22.9
		c10.9,0,16.5-5.7,16.5-5.7L234.5,73.8z M168.6,0.9l-4.2,28c-0.8-1-4.9-5.3-13.9-5.3c-16.3,0-30.4,13.4-30.4,33.6
		c0,13.2,5.9,22.8,19.2,22.8c14.4,0,18.7-14.6,18.7-14.6h-0.8c0,0-4.5,13.7-16.8,13.7c-8.9,0-14.2-7.9-14.2-21.2
		c0-16,8.3-33.4,24.3-33.4c8.4,0,12.5,4.3,13.7,5.7l-5.5,37c-1.1,7.1,1.4,12.7,9,12.7c6,0,8.4-4.8,8.4-4.8l-0.6-0.3
		c0,0-2.2,4.3-6.9,4.3c-4.1,0-5-2.9-3.7-11.3l9.3-62.4c0.5-3.3-0.9-5.4-3.5-5.4h-9l-0.1,0.9H168.6z M72.2,78l-0.1,0.9h20.6l0.1-0.9
		h-7.3l7.2-48c0.5-3.3-0.9-5.4-3.5-5.4h-9l-0.1,0.9h7L79.2,78H72.2z M36.5,67.2c-1,7.1,1.4,12.7,9,12.7c6.3,0,8.4-4.8,8.4-4.8
		l-0.6-0.3c0,0-2.3,4.3-6.8,4.3c-4.1,0-5-2.9-3.8-11.3L47,39.4c1.6-10.8-7.1-15.8-18.5-15.8S8.3,29.1,8.3,38.1
		c0,1.7,0.5,3.1,0.5,3.1H10c0,0-0.5-1.2-0.5-3c0-7.5,7-13.7,18.9-13.7c7.9,0,13.7,5.7,12.3,15l-1.5,10.2h-8.3C13.8,49.7,0,54.2,0,68
		c0,6.6,5,12,13.8,12c17.9,0,22-14.6,22-14.6H35c0,0-4.3,13.6-19.6,13.6c-6.2,0-9.1-4.2-9.1-10.4c0-11.5,11.8-18,24.5-18H39
		L36.5,67.2z"/>
	<path clip-path="url(#SVGID_2_)" d="M87,9.7c0,2,1.4,3.4,3.4,3.4c2.5,0,4.6-1.9,4.6-4.4c0-2-1.3-3.6-3.4-3.6
		C89.2,5.1,87,7.2,87,9.7"/>
</g>
</svg>
